# xmcd
#
# Track frame offsets: 
#        150
#        12261
#        25947
#        38276
#        51318
#        64158
#        78662
#        93057
#        106508
#        119960
#        134157
#        148713
#        164661
#        177115
#        189579
#        204279
#        218897
#        233629
#        245812
#        257796
#
# Disc length: 3602 seconds
#
# Revision: 0
# Processed by: cddbd v1.5.2PL0 Copyright (c) Steve Scherf et al.
# Submitted via: ExactAudioCopy v0.95b3
#
DISCID=1f0e1014
DTITLE=Billie Holiday  - Volume 09 1940 Complete Edition
DYEAR=1900
DGENRE=
TTITLE0=Ghost Of Yesterday
TTITLE1=Body And Soul
TTITLE2=What Is This Ging To Get Us?
TTITLE3=Falling In Love Again
TTITLE4=Falling In Love Again
TTITLE5=I'm Pulling Trough
TTITLE6=Tell Me Mor And More
TTITLE7=Laughing At Life
TTITLE8=Laughing At Life
TTITLE9=Time On My Hands
TTITLE10=I'm All For You
TTITLE11=I'm All For You
TTITLE12=I Hear Music
TTITLE13=I Hear Music
TTITLE14=(It's) The Same Old Story
TTITLE15=(It's) The Same Old Story
TTITLE16=(It's) The Same Old Story
TTITLE17=Pactice Makes Perfect
TTITLE18=Practice Makes Perfect
TTITLE19=Practice Makes Perfect
EXTD=
EXTT0=
EXTT1=
EXTT2=
EXTT3=
EXTT4=
EXTT5=
EXTT6=
EXTT7=
EXTT8=
EXTT9=
EXTT10=
EXTT11=
EXTT12=
EXTT13=
EXTT14=
EXTT15=
EXTT16=
EXTT17=
EXTT18=
EXTT19=
PLAYORDER=
